{
	"asset":{
		"generator":"Khronos glTF Blender I/O v4.5.48",
		"version":"2.0"
	},
	"scene":0,
	"scenes":[
		{
			"name":"Scene",
			"nodes":[
				0,
				1,
				2,
				3,
				4,
				5,
				6,
				7,
				8,
				9,
				10
			]
		}
	],
	"nodes":[
		{
			"mesh":0,
			"name":"collider_playground"
		},
		{
			"mesh":1,
			"name":"collider_Suzanne",
			"translation":[
				0,
				6.354866981506348,
				0
			]
		},
		{
			"mesh":2,
			"name":"collider_Cube",
			"scale":[
				1,
				0.2599635720252991,
				1
			],
			"translation":[
				5.98696231842041,
				3.724761486053467,
				7.882402420043945
			]
		},
		{
			"mesh":3,
			"name":"collider_Cube.001",
			"scale":[
				1,
				0.2599635720252991,
				1
			],
			"translation":[
				0,
				2.9307451248168945,
				4.0780768394470215
			]
		},
		{
			"mesh":4,
			"name":"collider_Cube.002",
			"scale":[
				1,
				0.2599635720252991,
				1
			],
			"translation":[
				0,
				1.7582453489303589,
				7.882402420043945
			]
		},
		{
			"mesh":5,
			"name":"collider_Cube.003",
			"scale":[
				1,
				0.9321324825286865,
				1
			],
			"translation":[
				5.568928241729736,
				1.3075668811798096,
				2.187859535217285
			]
		},
		{
			"mesh":6,
			"name":"collider_Cube.004",
			"rotation":[
				0,
				-0.640633761882782,
				0,
				0.7678465843200684
			],
			"scale":[
				1.6206779479980469,
				0.9321324825286865,
				1.9204858541488647
			],
			"translation":[
				5.568928241729736,
				1.3075668811798096,
				-6.597833633422852
			]
		},
		{
			"mesh":7,
			"name":"collider_playground.001"
		},
		{
			"mesh":8,
			"name":"collider_playground.002"
		},
		{
			"mesh":9,
			"name":"collider_playground.003"
		},
		{
			"mesh":10,
			"name":"collider_playground.004"
		}
	],
	"materials":[
		{
			"doubleSided":true,
			"name":"Material",
			"pbrMetallicRoughness":{
				"baseColorFactor":[
					0.015471016988158226,
					0.48440366983413696,
					0,
					1
				],
				"metallicFactor":0,
				"roughnessFactor":0.5
			}
		},
		{
			"doubleSided":true,
			"name":"Material.002",
			"pbrMetallicRoughness":{
				"baseColorFactor":[
					0,
					0.800133466720581,
					0.7883453369140625,
					1
				],
				"metallicFactor":0,
				"roughnessFactor":0.5
			}
		},
		{
			"doubleSided":true,
			"name":"Material.001",
			"pbrMetallicRoughness":{
				"baseColorFactor":[
					0.8001194596290588,
					0,
					0.0033053511288017035,
					1
				],
				"metallicFactor":0,
				"roughnessFactor":0.5
			}
		},
		{
			"doubleSided":true,
			"name":"Material.003",
			"pbrMetallicRoughness":{
				"baseColorFactor":[
					0.8001416921615601,
					0.7474561929702759,
					0.007007334381341934,
					1
				],
				"metallicFactor":0,
				"roughnessFactor":0.5
			}
		}
	],
	"meshes":[
		{
			"name":"Cube",
			"primitives":[
				{
					"attributes":{
						"POSITION":0,
						"NORMAL":1,
						"TEXCOORD_0":2
					},
					"indices":3,
					"material":0
				}
			]
		},
		{
			"name":"Suzanne",
			"primitives":[
				{
					"attributes":{
						"POSITION":4,
						"NORMAL":5,
						"TEXCOORD_0":6
					},
					"indices":7,
					"material":1
				}
			]
		},
		{
			"name":"Cube.001",
			"primitives":[
				{
					"attributes":{
						"POSITION":8,
						"NORMAL":9,
						"TEXCOORD_0":10
					},
					"indices":11,
					"material":2
				}
			]
		},
		{
			"name":"Cube.002",
			"primitives":[
				{
					"attributes":{
						"POSITION":12,
						"NORMAL":13,
						"TEXCOORD_0":14
					},
					"indices":11,
					"material":2
				}
			]
		},
		{
			"name":"Cube.003",
			"primitives":[
				{
					"attributes":{
						"POSITION":15,
						"NORMAL":16,
						"TEXCOORD_0":17
					},
					"indices":11,
					"material":2
				}
			]
		},
		{
			"name":"Cube.004",
			"primitives":[
				{
					"attributes":{
						"POSITION":18,
						"NORMAL":19,
						"TEXCOORD_0":20
					},
					"indices":21,
					"material":3
				}
			]
		},
		{
			"name":"Cube.005",
			"primitives":[
				{
					"attributes":{
						"POSITION":22,
						"NORMAL":23,
						"TEXCOORD_0":24
					},
					"indices":21,
					"material":3
				}
			]
		},
		{
			"name":"Cube.006",
			"primitives":[
				{
					"attributes":{
						"POSITION":25,
						"NORMAL":26,
						"TEXCOORD_0":27
					},
					"indices":28,
					"material":2
				}
			]
		},
		{
			"name":"Cube.007",
			"primitives":[
				{
					"attributes":{
						"POSITION":29,
						"NORMAL":30,
						"TEXCOORD_0":31
					},
					"indices":32,
					"material":2
				}
			]
		},
		{
			"name":"Cube.008",
			"primitives":[
				{
					"attributes":{
						"POSITION":33,
						"NORMAL":34,
						"TEXCOORD_0":35
					},
					"indices":36,
					"material":2
				}
			]
		},
		{
			"name":"Cube.009",
			"primitives":[
				{
					"attributes":{
						"POSITION":37,
						"NORMAL":38,
						"TEXCOORD_0":39
					},
					"indices":40,
					"material":2
				}
			]
		}
	],
	"accessors":[
		{
			"bufferView":0,
			"componentType":5126,
			"count":24,
			"max":[
				21.458742141723633,
				0.2797406315803528,
				19.427967071533203
			],
			"min":[
				-21.458742141723633,
				-0.2797406315803528,
				-19.427967071533203
			],
			"type":"VEC3"
		},
		{
			"bufferView":1,
			"componentType":5126,
			"count":24,
			"type":"VEC3"
		},
		{
			"bufferView":2,
			"componentType":5126,
			"count":24,
			"type":"VEC2"
		},
		{
			"bufferView":3,
			"componentType":5123,
			"count":36,
			"type":"SCALAR"
		},
		{
			"bufferView":4,
			"componentType":5126,
			"count":1966,
			"max":[
				1.3671875,
				0.984375,
				0.8515625
			],
			"min":[
				-1.3671875,
				-0.984375,
				-0.8515625
			],
			"type":"VEC3"
		},
		{
			"bufferView":5,
			"componentType":5126,
			"count":1966,
			"type":"VEC3"
		},
		{
			"bufferView":6,
			"componentType":5126,
			"count":1966,
			"type":"VEC2"
		},
		{
			"bufferView":7,
			"componentType":5123,
			"count":2904,
			"type":"SCALAR"
		},
		{
			"bufferView":8,
			"componentType":5126,
			"count":24,
			"max":[
				1,
				1,
				1
			],
			"min":[
				-1,
				-1,
				-1
			],
			"type":"VEC3"
		},
		{
			"bufferView":9,
			"componentType":5126,
			"count":24,
			"type":"VEC3"
		},
		{
			"bufferView":10,
			"componentType":5126,
			"count":24,
			"type":"VEC2"
		},
		{
			"bufferView":11,
			"componentType":5123,
			"count":36,
			"type":"SCALAR"
		},
		{
			"bufferView":12,
			"componentType":5126,
			"count":24,
			"max":[
				1,
				1,
				1
			],
			"min":[
				-1,
				-1,
				-1
			],
			"type":"VEC3"
		},
		{
			"bufferView":13,
			"componentType":5126,
			"count":24,
			"type":"VEC3"
		},
		{
			"bufferView":14,
			"componentType":5126,
			"count":24,
			"type":"VEC2"
		},
		{
			"bufferView":15,
			"componentType":5126,
			"count":24,
			"max":[
				1,
				1,
				1
			],
			"min":[
				-1,
				-1,
				-1
			],
			"type":"VEC3"
		},
		{
			"bufferView":16,
			"componentType":5126,
			"count":24,
			"type":"VEC3"
		},
		{
			"bufferView":17,
			"componentType":5126,
			"count":24,
			"type":"VEC2"
		},
		{
			"bufferView":18,
			"componentType":5126,
			"count":18,
			"max":[
				1,
				1,
				1
			],
			"min":[
				-1,
				-1,
				-1
			],
			"type":"VEC3"
		},
		{
			"bufferView":19,
			"componentType":5126,
			"count":18,
			"type":"VEC3"
		},
		{
			"bufferView":20,
			"componentType":5126,
			"count":18,
			"type":"VEC2"
		},
		{
			"bufferView":21,
			"componentType":5123,
			"count":24,
			"type":"SCALAR"
		},
		{
			"bufferView":22,
			"componentType":5126,
			"count":18,
			"max":[
				1,
				1,
				1
			],
			"min":[
				-1,
				-1,
				-1
			],
			"type":"VEC3"
		},
		{
			"bufferView":23,
			"componentType":5126,
			"count":18,
			"type":"VEC3"
		},
		{
			"bufferView":24,
			"componentType":5126,
			"count":18,
			"type":"VEC2"
		},
		{
			"bufferView":25,
			"componentType":5126,
			"count":12,
			"max":[
				-20.665359497070312,
				6.606221675872803,
				19.427967071533203
			],
			"min":[
				-21.458742141723633,
				0.2797406315803528,
				-19.427967071533203
			],
			"type":"VEC3"
		},
		{
			"bufferView":26,
			"componentType":5126,
			"count":12,
			"type":"VEC3"
		},
		{
			"bufferView":27,
			"componentType":5126,
			"count":12,
			"type":"VEC2"
		},
		{
			"bufferView":28,
			"componentType":5123,
			"count":18,
			"type":"SCALAR"
		},
		{
			"bufferView":29,
			"componentType":5126,
			"count":12,
			"max":[
				21.458742141723633,
				6.606221675872803,
				-18.634584426879883
			],
			"min":[
				-21.458742141723633,
				0.2797406315803528,
				-19.427967071533203
			],
			"type":"VEC3"
		},
		{
			"bufferView":30,
			"componentType":5126,
			"count":12,
			"type":"VEC3"
		},
		{
			"bufferView":31,
			"componentType":5126,
			"count":12,
			"type":"VEC2"
		},
		{
			"bufferView":32,
			"componentType":5123,
			"count":18,
			"type":"SCALAR"
		},
		{
			"bufferView":33,
			"componentType":5126,
			"count":12,
			"max":[
				21.458742141723633,
				6.606221675872803,
				19.427967071533203
			],
			"min":[
				20.665359497070312,
				0.2797406315803528,
				-19.427967071533203
			],
			"type":"VEC3"
		},
		{
			"bufferView":34,
			"componentType":5126,
			"count":12,
			"type":"VEC3"
		},
		{
			"bufferView":35,
			"componentType":5126,
			"count":12,
			"type":"VEC2"
		},
		{
			"bufferView":36,
			"componentType":5123,
			"count":18,
			"type":"SCALAR"
		},
		{
			"bufferView":37,
			"componentType":5126,
			"count":12,
			"max":[
				21.458742141723633,
				6.606221675872803,
				19.427967071533203
			],
			"min":[
				-21.458742141723633,
				0.2797406315803528,
				18.634584426879883
			],
			"type":"VEC3"
		},
		{
			"bufferView":38,
			"componentType":5126,
			"count":12,
			"type":"VEC3"
		},
		{
			"bufferView":39,
			"componentType":5126,
			"count":12,
			"type":"VEC2"
		},
		{
			"bufferView":40,
			"componentType":5123,
			"count":18,
			"type":"SCALAR"
		}
	],
	"bufferViews":[
		{
			"buffer":0,
			"byteLength":288,
			"byteOffset":0,
			"target":34962
		},
		{
			"buffer":0,
			"byteLength":288,
			"byteOffset":288,
			"target":34962
		},
		{
			"buffer":0,
			"byteLength":192,
			"byteOffset":576,
			"target":34962
		},
		{
			"buffer":0,
			"byteLength":72,
			"byteOffset":768,
			"target":34963
		},
		{
			"buffer":0,
			"byteLength":23592,
			"byteOffset":840,
			"target":34962
		},
		{
			"buffer":0,
			"byteLength":23592,
			"byteOffset":24432,
			"target":34962
		},
		{
			"buffer":0,
			"byteLength":15728,
			"byteOffset":48024,
			"target":34962
		},
		{
			"buffer":0,
			"byteLength":5808,
			"byteOffset":63752,
			"target":34963
		},
		{
			"buffer":0,
			"byteLength":288,
			"byteOffset":69560,
			"target":34962
		},
		{
			"buffer":0,
			"byteLength":288,
			"byteOffset":69848,
			"target":34962
		},
		{
			"buffer":0,
			"byteLength":192,
			"byteOffset":70136,
			"target":34962
		},
		{
			"buffer":0,
			"byteLength":72,
			"byteOffset":70328,
			"target":34963
		},
		{
			"buffer":0,
			"byteLength":288,
			"byteOffset":70400,
			"target":34962
		},
		{
			"buffer":0,
			"byteLength":288,
			"byteOffset":70688,
			"target":34962
		},
		{
			"buffer":0,
			"byteLength":192,
			"byteOffset":70976,
			"target":34962
		},
		{
			"buffer":0,
			"byteLength":288,
			"byteOffset":71168,
			"target":34962
		},
		{
			"buffer":0,
			"byteLength":288,
			"byteOffset":71456,
			"target":34962
		},
		{
			"buffer":0,
			"byteLength":192,
			"byteOffset":71744,
			"target":34962
		},
		{
			"buffer":0,
			"byteLength":216,
			"byteOffset":71936,
			"target":34962
		},
		{
			"buffer":0,
			"byteLength":216,
			"byteOffset":72152,
			"target":34962
		},
		{
			"buffer":0,
			"byteLength":144,
			"byteOffset":72368,
			"target":34962
		},
		{
			"buffer":0,
			"byteLength":48,
			"byteOffset":72512,
			"target":34963
		},
		{
			"buffer":0,
			"byteLength":216,
			"byteOffset":72560,
			"target":34962
		},
		{
			"buffer":0,
			"byteLength":216,
			"byteOffset":72776,
			"target":34962
		},
		{
			"buffer":0,
			"byteLength":144,
			"byteOffset":72992,
			"target":34962
		},
		{
			"buffer":0,
			"byteLength":144,
			"byteOffset":73136,
			"target":34962
		},
		{
			"buffer":0,
			"byteLength":144,
			"byteOffset":73280,
			"target":34962
		},
		{
			"buffer":0,
			"byteLength":96,
			"byteOffset":73424,
			"target":34962
		},
		{
			"buffer":0,
			"byteLength":36,
			"byteOffset":73520,
			"target":34963
		},
		{
			"buffer":0,
			"byteLength":144,
			"byteOffset":73556,
			"target":34962
		},
		{
			"buffer":0,
			"byteLength":144,
			"byteOffset":73700,
			"target":34962
		},
		{
			"buffer":0,
			"byteLength":96,
			"byteOffset":73844,
			"target":34962
		},
		{
			"buffer":0,
			"byteLength":36,
			"byteOffset":73940,
			"target":34963
		},
		{
			"buffer":0,
			"byteLength":144,
			"byteOffset":73976,
			"target":34962
		},
		{
			"buffer":0,
			"byteLength":144,
			"byteOffset":74120,
			"target":34962
		},
		{
			"buffer":0,
			"byteLength":96,
			"byteOffset":74264,
			"target":34962
		},
		{
			"buffer":0,
			"byteLength":36,
			"byteOffset":74360,
			"target":34963
		},
		{
			"buffer":0,
			"byteLength":144,
			"byteOffset":74396,
			"target":34962
		},
		{
			"buffer":0,
			"byteLength":144,
			"byteOffset":74540,
			"target":34962
		},
		{
			"buffer":0,
			"byteLength":96,
			"byteOffset":74684,
			"target":34962
		},
		{
			"buffer":0,
			"byteLength":36,
			"byteOffset":74780,
			"target":34963
		}
	],
	"buffers":[
		{
			"byteLength":74816,
			"uri":"introLevel.bin"
		}
	]
}
